<svg id="Group_31" data-name="Group 31" xmlns="http://www.w3.org/2000/svg" width="164.064" height="107.608" viewBox="0 0 164.064 107.608">
  <defs>
    <style>
      .cls-1 {
        fill: #f5700f;
      }
    </style>
  </defs>
  <g id="Group_15" data-name="Group 15" transform="translate(0 0)">
    <path id="Path_8" data-name="Path 8" class="cls-1" d="M80.65,23.82h3.494V17.657a.9.9,0,0,0-.9-.9H80.65Z" transform="translate(-0.538 -0.1)"/>
    <path id="Path_9" data-name="Path 9" class="cls-1" d="M60.392,23.786h3.536V17.6a.848.848,0,0,0-.847-.847H60.392Z" transform="translate(-0.416 -0.1)"/>
    <path id="Path_10" data-name="Path 10" class="cls-1" d="M.056,51.1H139.008V0H.056Zm24.69-34.443H18.814V34.683h5.931v5.1h-10.9a2.146,2.146,0,0,1-.949-.217A2.9,2.9,0,0,1,11.533,38.2a2.136,2.136,0,0,1-.218-.949V14.087a2.142,2.142,0,0,1,.218-.949A2.891,2.891,0,0,1,12.9,11.772a2.146,2.146,0,0,1,.949-.217h10.9ZM42.7,39.837H35.519l-.105-10.459L27.57,11.556h8.515l2.977,9.384,2.873-9.384H49.6L42.7,29.378Zm27-13.552a2.15,2.15,0,0,1-.218.949,2.737,2.737,0,0,1-.582.8,3.192,3.192,0,0,1-.817.567,2.149,2.149,0,0,1-.949.217h-7.1V39.782H52.5V11.556H67.131a2.149,2.149,0,0,1,.949.217,3.189,3.189,0,0,1,.817.566,2.764,2.764,0,0,1,.582.8,2.156,2.156,0,0,1,.218.949Zm14.338,13.5-3.7-10.93h-.166v10.93H72.7V11.556h14.63a2.156,2.156,0,0,1,.95.217,2.9,2.9,0,0,1,1.365,1.366,2.143,2.143,0,0,1,.218.949v12.23a2.326,2.326,0,0,1-.533,1.45,2.816,2.816,0,0,1-1.267.949L91.8,39.782Zm28.227-2.533a2.175,2.175,0,0,1-.215.949,2.794,2.794,0,0,1-.583.8,3.211,3.211,0,0,1-.817.567,2.152,2.152,0,0,1-.949.217H97.1a2.146,2.146,0,0,1-.949-.217A2.9,2.9,0,0,1,94.784,38.2a2.136,2.136,0,0,1-.218-.949V11.556h7.465V34.683h2.7V11.556h7.532Zm14.691-14.93a2.151,2.151,0,0,1,.95.218,3.134,3.134,0,0,1,.816.566,2.752,2.752,0,0,1,.583.8,2.164,2.164,0,0,1,.218.949v12.4a2.164,2.164,0,0,1-.218.949,2.739,2.739,0,0,1-.583.8,3.138,3.138,0,0,1-.816.567,2.15,2.15,0,0,1-.95.217h-10.83l-1.2-5.1h7.1V27.418h-3.932a2.156,2.156,0,0,1-.95-.217,2.712,2.712,0,0,1-.8-.583,3.153,3.153,0,0,1-.569-.816,2.182,2.182,0,0,1-.215-.95V14.087a2.181,2.181,0,0,1,.215-.949,2.926,2.926,0,0,1,1.367-1.366,2.156,2.156,0,0,1,.95-.217h11.165l1.165,5.1h-7.4v5.665Z" transform="translate(-0.056)"/>
  </g>
  <g id="Group_14" data-name="Group 14" transform="translate(60.895 56.511)">
    <path id="Path_11" data-name="Path 11" class="cls-1" d="M82.522,79.026h3.685v-5.7a1.332,1.332,0,0,0-1.332-1.332H82.522Z" transform="translate(-60.031 -55.639)"/>
    <path id="Path_12" data-name="Path 12" class="cls-1" d="M102.5,88.033h3.077l-1.554-8.965Z" transform="translate(-60.151 -55.682)"/>
    <path id="Path_13" data-name="Path 13" class="cls-1" d="M59.9,106.638h103.17v-51.1H59.9ZM92.051,81.527a2.149,2.149,0,0,1-.217.949,2.755,2.755,0,0,1-.583.8,3.189,3.189,0,0,1-.816.567,2.157,2.157,0,0,1-.95.217h-7.1V95.024H74.855V66.8h14.63a2.156,2.156,0,0,1,.95.217,3.185,3.185,0,0,1,.816.566,2.754,2.754,0,0,1,.583.8,2.152,2.152,0,0,1,.217.949Zm14.6,13.5-.432-1.966-.067-.067h-4.8q0-.033-.466,2.033H93.25L98.682,71.9l-1.367-5.1h10.3l6.665,28.226ZM127.31,77.561a2.144,2.144,0,0,1,.949.218,3.1,3.1,0,0,1,.817.566,2.726,2.726,0,0,1,.583.8,2.163,2.163,0,0,1,.218.949v12.4a2.167,2.167,0,0,1-.218.949,2.739,2.739,0,0,1-.583.8,3.126,3.126,0,0,1-.817.567,2.143,2.143,0,0,1-.949.217H116.48l-1.2-5.1h7.1V82.66h-3.932a2.156,2.156,0,0,1-.95-.217,2.73,2.73,0,0,1-.8-.583,3.17,3.17,0,0,1-.569-.816,2.183,2.183,0,0,1-.216-.95V69.329a2.179,2.179,0,0,1,.216-.949,2.926,2.926,0,0,1,1.367-1.366,2.156,2.156,0,0,1,.95-.217h12.33v5.1h-7.4v5.665Zm17.661,0a2.151,2.151,0,0,1,.95.218,3.11,3.11,0,0,1,.816.566,2.725,2.725,0,0,1,.583.8,2.163,2.163,0,0,1,.218.949v12.4a2.167,2.167,0,0,1-.218.949,2.739,2.739,0,0,1-.583.8,3.138,3.138,0,0,1-.816.567,2.15,2.15,0,0,1-.95.217H132.94v-5.1h7.1V82.66h-3.932a2.156,2.156,0,0,1-.95-.217,2.731,2.731,0,0,1-.8-.583,3.171,3.171,0,0,1-.569-.816,2.182,2.182,0,0,1-.215-.95V69.329a2.178,2.178,0,0,1,.215-.949,2.925,2.925,0,0,1,1.367-1.366,2.156,2.156,0,0,1,.95-.217h12.33v5.1h-7.4v5.665Z" transform="translate(-59.896 -55.541)"/>
  </g>
  <path id="Path_14" data-name="Path 14" class="cls-1" d="M0,106.638H55.25v-51.1H0Zm27.625-6.431-10.09-10.09L20,87.652l7.625,7.625,5.321-5.321L24.437,81.4a4.728,4.728,0,1,1,5.5.626l7.934,7.934Zm12.607-12.9-2.38-2.381a12.477,12.477,0,0,0,2.434-7.352,12.661,12.661,0,0,0-25.323,0A12.5,12.5,0,0,0,17.512,85.1L15.141,87.47a15.948,15.948,0,1,1,28.447-9.893,15.815,15.815,0,0,1-3.356,9.732" transform="translate(0 0.97)"/>
</svg>
